HIERARCHY
ROOT Hips
{
	OFFSET	0.000000	0.000000	0.000000
	CHANNELS 1 Xposition
	End Site
	{
		OFFSET	0.0	0.0	0.0
	}

}


MOTION
Frames:    5
Frame Time: 0.1
0.000
0.002
0.004
0.006
0.007
